<svg width="338" height="92" viewBox="0 0 338 92" fill="none" xmlns="http://www.w3.org/2000/svg">
<path d="M0.400001 70V-4.76837e-06H12.4V31.9L42.8 -4.76837e-06H57.5L24.1 33.7L58.7 70H42.8L12.4 37.3V70H0.400001ZM84.8977 71C80.0977 71 75.7643 69.8667 71.8977 67.6C68.031 65.2667 64.9643 62.1667 62.6977 58.3C60.431 54.3667 59.2977 49.9333 59.2977 45C59.2977 40.0667 60.3643 35.6667 62.4977 31.8C64.631 27.9333 67.531 24.8667 71.1977 22.6C74.931 20.2667 79.0643 19.1 83.5977 19.1C88.2643 19.1 92.3643 20.2333 95.8977 22.5C99.4977 24.7667 102.298 27.8333 104.298 31.7C106.364 35.5667 107.398 40 107.398 45V47.7H70.3977C70.7977 50.4333 71.6643 52.8667 72.9977 55C74.3977 57.0667 76.1643 58.7 78.2977 59.9C80.4977 61.1 82.8643 61.7 85.3977 61.7C87.731 61.7 89.931 61.3 91.9977 60.5C94.131 59.6333 95.8977 58.4667 97.2977 57L104.698 63.7C101.631 66.2333 98.4977 68.1 95.2977 69.3C92.1643 70.4333 88.6977 71 84.8977 71ZM70.4977 40.7H96.6977C96.2977 38.3 95.4643 36.1667 94.1977 34.3C92.9977 32.4333 91.4643 30.9667 89.5977 29.9C87.7977 28.8333 85.7977 28.3 83.5977 28.3C81.3977 28.3 79.3643 28.8333 77.4977 29.9C75.6977 30.9 74.1977 32.3333 72.9977 34.2C71.7977 36.0667 70.9643 38.2333 70.4977 40.7ZM142.417 71C137.617 71 133.284 69.8667 129.417 67.6C125.551 65.2667 122.484 62.1667 120.217 58.3C117.951 54.3667 116.817 49.9333 116.817 45C116.817 40.0667 117.884 35.6667 120.017 31.8C122.151 27.9333 125.051 24.8667 128.717 22.6C132.451 20.2667 136.584 19.1 141.117 19.1C145.784 19.1 149.884 20.2333 153.417 22.5C157.017 24.7667 159.817 27.8333 161.817 31.7C163.884 35.5667 164.917 40 164.917 45V47.7H127.917C128.317 50.4333 129.184 52.8667 130.517 55C131.917 57.0667 133.684 58.7 135.817 59.9C138.017 61.1 140.384 61.7 142.917 61.7C145.251 61.7 147.451 61.3 149.517 60.5C151.651 59.6333 153.417 58.4667 154.817 57L162.217 63.7C159.151 66.2333 156.017 68.1 152.817 69.3C149.684 70.4333 146.217 71 142.417 71ZM128.017 40.7H154.217C153.817 38.3 152.984 36.1667 151.717 34.3C150.517 32.4333 148.984 30.9667 147.117 29.9C145.317 28.8333 143.317 28.3 141.117 28.3C138.917 28.3 136.884 28.8333 135.017 29.9C133.217 30.9 131.717 32.3333 130.517 34.2C129.317 36.0667 128.484 38.2333 128.017 40.7ZM200.037 91.9C196.503 91.9 193.003 91.4667 189.537 90.6C186.07 89.7333 182.87 88.5333 179.937 87L183.837 78.7C186.837 80.1 189.57 81.1333 192.037 81.8C194.57 82.5333 197.07 82.9 199.537 82.9C203.737 82.9 206.903 81.9667 209.037 80.1C211.237 78.2333 212.337 75.4667 212.337 71.8V63.3C210.537 65.5 208.303 67.2333 205.637 68.5C202.97 69.7 200.07 70.3 196.937 70.3C192.737 70.3 188.937 69.1667 185.537 66.9C182.137 64.5667 179.403 61.5 177.337 57.7C175.337 53.8333 174.337 49.5333 174.337 44.8C174.337 40.0667 175.37 35.8 177.437 32C179.503 28.2 182.303 25.1667 185.837 22.9C189.437 20.6333 193.403 19.5 197.737 19.5C200.67 19.5 203.403 20.0667 205.937 21.2C208.47 22.3333 210.637 24 212.437 26.2V19.9H223.637V71.8C223.637 78.2667 221.603 83.2333 217.537 86.7C213.47 90.1667 207.637 91.9 200.037 91.9ZM200.437 60.9C202.837 60.9 205.07 60.4333 207.137 59.5C209.203 58.5 210.937 57.1333 212.337 55.4V34.4C210.87 32.6667 209.103 31.3333 207.037 30.4C204.97 29.4667 202.77 29 200.437 29C197.57 29 195.003 29.7 192.737 31.1C190.537 32.4333 188.77 34.3 187.437 36.7C186.17 39.0333 185.537 41.7667 185.537 44.9C185.537 47.9 186.17 50.6333 187.437 53.1C188.77 55.5 190.537 57.4 192.737 58.8C195.003 60.2 197.57 60.9 200.437 60.9ZM252.774 70.9C249.308 70.9 246.208 70.2667 243.474 69C240.808 67.6667 238.708 65.8667 237.174 63.6C235.708 61.2667 234.974 58.6 234.974 55.6C234.974 52.6 235.741 50 237.274 47.8C238.874 45.6 241.108 43.9 243.974 42.7C246.841 41.5 250.241 40.9 254.174 40.9C256.508 40.9 258.808 41.1667 261.074 41.7C263.341 42.1667 265.541 42.9667 267.674 44.1V38.5C267.674 35.1667 266.708 32.6667 264.774 31C262.908 29.3333 260.041 28.5 256.174 28.5C254.108 28.5 251.874 28.8333 249.474 29.5C247.141 30.1 244.508 31.0667 241.574 32.4L237.574 24.2C244.908 20.8 251.841 19.1 258.374 19.1C264.908 19.1 269.941 20.7 273.474 23.9C277.074 27.0333 278.874 31.5 278.874 37.3V70H267.674V64.8C265.541 66.8667 263.241 68.4 260.774 69.4C258.308 70.4 255.641 70.9 252.774 70.9ZM245.574 55.4C245.574 57.7333 246.508 59.5667 248.374 60.9C250.241 62.2333 252.741 62.9 255.874 62.9C258.141 62.9 260.241 62.5667 262.174 61.9C264.174 61.1667 266.008 60.1 267.674 58.7V50.6C265.941 49.8 264.141 49.2 262.274 48.8C260.408 48.4 258.374 48.2 256.174 48.2C252.908 48.2 250.308 48.8333 248.374 50.1C246.508 51.3667 245.574 53.1333 245.574 55.4ZM292.555 70V19.9H303.855V28.1C305.788 25.1 308.088 22.8667 310.755 21.4C313.421 19.8667 316.421 19.1 319.755 19.1C323.155 19.1 326.155 19.8667 328.755 21.4C331.355 22.8667 333.388 24.9333 334.855 27.6C336.388 30.2667 337.155 33.4 337.155 37V70H325.755V40.2C325.755 36.5333 324.755 33.6333 322.755 31.5C320.755 29.3 318.088 28.2 314.755 28.2C312.488 28.2 310.421 28.7333 308.555 29.8C306.755 30.8 305.188 32.3 303.855 34.3V70H292.555Z" fill="#f4f6f5"/>
</svg>
